<svg width="80" height="80" viewBox="0 0 80 80" fill="none" xmlns="http://www.w3.org/2000/svg">
<g filter="url(#filter0_d_2842_295281)">
<path d="M5 29.8889C5 21.177 5 16.821 6.69545 13.4935C8.18682 10.5665 10.5665 8.18682 13.4935 6.69545C16.821 5 21.177 5 29.8889 5H50.1111C58.823 5 63.179 5 66.5065 6.69545C69.4335 8.18682 71.8132 10.5665 73.3045 13.4935C75 16.821 75 21.177 75 29.8889V50.1111C75 58.823 75 63.179 73.3045 66.5065C71.8132 69.4335 69.4335 71.8132 66.5065 73.3045C63.179 75 58.823 75 50.1111 75H29.8889C21.177 75 16.821 75 13.4935 73.3045C10.5665 71.8132 8.18682 69.4335 6.69545 66.5065C5 63.179 5 58.823 5 50.1111V29.8889Z" fill="white"/>
<path d="M61.2328 15H53.1045V26.7781H64.9982V18.3211C65.0014 18.3211 64.4104 15.3212 61.2328 15Z" fill="#1967D2"/>
<path d="M53.1057 64.9452V64.9741V64.9998L64.9994 53.2217H64.8928L53.1057 64.9452Z" fill="#1967D2"/>
<path d="M64.9984 53.2213V53.1157L64.8928 53.2213H64.9984Z" fill="#FBBC05"/>
<path d="M64.9994 26.7783H53.1057V53.1161H64.9994V26.7783Z" fill="#FBBC05"/>
<path d="M64.8928 53.2217H53.1057V64.9452L64.8928 53.2217Z" fill="#EA4335"/>
<path d="M53.1057 53.2213H64.8928L64.9994 53.1157H53.1057V53.2213Z" fill="#EA4335"/>
<path d="M53.0767 64.9746H53.1055V64.9458L53.0767 64.9746Z" fill="#34A853"/>
<path d="M26.626 53.1157V64.9741H53.0776L53.1066 53.1157H26.626Z" fill="#34A853"/>
<path d="M53.1055 53.2217V53.1157L53.0767 64.9741L53.1055 64.9452V53.2217Z" fill="#34A853"/>
<path d="M15 53.1157V61.3607C15.1066 64.0363 18.0001 64.9741 18.0001 64.9741H26.6257V53.1157H15Z" fill="#188038"/>
<path d="M26.6257 26.7786H53.1063V15.0005H18.3359C18.3359 15.0005 15.2131 15.3217 15 18.6396V53.1164H26.6257V26.7786Z" fill="#4285F4"/>
<path d="M35.2902 47.7847C34.6844 47.7847 34.1002 47.7058 33.5377 47.548C32.9895 47.3902 32.4847 47.1535 32.0231 46.8378C31.5615 46.5079 31.1504 46.099 30.7898 45.6112C30.4436 45.1234 30.1768 44.5567 29.9893 43.9111L32.6506 42.8566C32.8381 43.574 33.1554 44.1191 33.6026 44.4922C34.0497 44.8508 34.6123 45.0302 35.2902 45.0302C35.5931 45.0302 35.8816 44.9871 36.1557 44.901C36.4298 44.8006 36.6678 44.6643 36.8697 44.4922C37.0716 44.32 37.2303 44.1191 37.3457 43.8896C37.4755 43.6457 37.5404 43.3731 37.5404 43.0718C37.5404 42.4406 37.3024 41.9456 36.8264 41.587C36.3649 41.2283 35.723 41.049 34.9008 41.049H33.6242V38.4881H34.7926C35.0811 38.4881 35.3624 38.4522 35.6364 38.3805C35.9105 38.3088 36.1485 38.2012 36.3504 38.0577C36.5668 37.8999 36.7327 37.7062 36.8481 37.4767C36.9779 37.2328 37.0428 36.953 37.0428 36.6374C37.0428 36.1496 36.8697 35.7551 36.5235 35.4538C36.1773 35.1382 35.7085 34.9804 35.1171 34.9804C34.4825 34.9804 33.992 35.1525 33.6458 35.4968C33.3141 35.8268 33.0833 36.1998 32.9535 36.6159L30.3571 35.5614C30.4869 35.2027 30.6816 34.8369 30.9413 34.4639C31.2009 34.0765 31.5255 33.7322 31.9149 33.4309C32.3188 33.1153 32.7876 32.8642 33.3213 32.6777C33.855 32.4769 34.468 32.3765 35.1604 32.3765C35.8672 32.3765 36.5091 32.4769 37.0861 32.6777C37.6775 32.8786 38.1823 33.1584 38.6006 33.517C39.0189 33.8613 39.3435 34.2774 39.5743 34.7652C39.8051 35.2386 39.9205 35.7551 39.9205 36.3146C39.9205 36.745 39.8628 37.1324 39.7474 37.4767C39.6464 37.821 39.5094 38.1294 39.3363 38.402C39.1632 38.6746 38.9612 38.9113 38.7305 39.1122C38.5141 39.2987 38.2905 39.4493 38.0597 39.5641V39.7363C38.7521 40.0088 39.3219 40.4464 39.769 41.049C40.2306 41.6515 40.4614 42.4119 40.4614 43.3301C40.4614 43.9757 40.3388 44.5711 40.0936 45.1162C39.8483 45.6471 39.495 46.1133 39.0334 46.515C38.5862 46.9167 38.0453 47.2252 37.4106 47.4404C36.7759 47.6699 36.0692 47.7847 35.2902 47.7847Z" fill="#4285F4"/>
<path d="M45.6283 47.4404V36.0348L43.0103 37.1324L41.9717 34.7437L46.3207 32.7208H48.4627V47.4404H45.6283Z" fill="#4285F4"/>
</g>
<defs>
<filter id="filter0_d_2842_295281" x="-2" y="-1" width="84" height="84" filterUnits="userSpaceOnUse" color-interpolation-filters="sRGB">
<feFlood flood-opacity="0" result="BackgroundImageFix"/>
<feColorMatrix in="SourceAlpha" type="matrix" values="0 0 0 0 0 0 0 0 0 0 0 0 0 0 0 0 0 0 127 0" result="hardAlpha"/>
<feOffset dy="1"/>
<feGaussianBlur stdDeviation="1"/>
<feColorMatrix type="matrix" values="0 0 0 0 0.0627451 0 0 0 0 0.0941176 0 0 0 0 0.156863 0 0 0 0.05 0"/>
<feBlend mode="normal" in2="BackgroundImageFix" result="effect1_dropShadow_2842_295281"/>
<feBlend mode="normal" in="SourceGraphic" in2="effect1_dropShadow_2842_295281" result="shape"/>
</filter>
</defs>
</svg>
