<svg width="80" height="80" viewBox="0 0 80 80" fill="none" xmlns="http://www.w3.org/2000/svg">
<g filter="url(#filter0_d_2842_295270)">
<path d="M5 29.8889C5 21.177 5 16.821 6.69545 13.4935C8.18682 10.5665 10.5665 8.18682 13.4935 6.69545C16.821 5 21.177 5 29.8889 5H50.1111C58.823 5 63.179 5 66.5065 6.69545C69.4335 8.18682 71.8132 10.5665 73.3045 13.4935C75 16.821 75 21.177 75 29.8889V50.1111C75 58.823 75 63.179 73.3045 66.5065C71.8132 69.4335 69.4335 71.8132 66.5065 73.3045C63.179 75 58.823 75 50.1111 75H29.8889C21.177 75 16.821 75 13.4935 73.3045C10.5665 71.8132 8.18682 69.4335 6.69545 66.5065C5 63.179 5 58.823 5 50.1111V29.8889Z" fill="white"/>
<path d="M40.005 31.1272L31.3528 15.8579C31.6401 15.5654 31.9706 15.3736 32.3011 15.2446C29.7496 16.0844 28.5789 18.9495 28.5789 18.9495L12.7726 46.8368C12.5502 47.7111 12.4884 48.5006 12.5162 49.1956H29.7682L40.005 31.1272Z" fill="#34A853"/>
<path d="M40.0049 31.1272L50.2417 49.1956H67.4937C67.5215 48.5006 67.4597 47.7111 67.2373 46.8368L51.431 18.9495C51.431 18.9495 50.2572 16.0844 47.7088 15.2446C48.0362 15.3736 48.3698 15.5654 48.6571 15.8579L40.0049 31.1272Z" fill="#FBBC05"/>
<path d="M40.0048 31.1281L48.657 15.8588C48.3697 15.5663 48.0361 15.3744 47.7087 15.2455C47.3318 15.1228 46.9271 15.0411 46.4885 15.019H46.0313H33.9782H33.521C33.0854 15.0379 32.6777 15.1197 32.3009 15.2455C31.9734 15.3744 31.6398 15.5663 31.3525 15.8588L40.0048 31.1281Z" fill="#188038"/>
<path d="M29.7708 49.1958L21.2174 64.2921C21.2174 64.2921 20.9332 64.1537 20.5471 63.8675C21.7611 64.8016 22.9411 64.9998 22.9411 64.9998H56.5337C58.3871 64.9998 58.7732 64.2921 58.7732 64.2921C58.7794 64.289 58.7824 64.2858 58.7886 64.2827L50.2414 49.1958H29.7708Z" fill="#4285F4"/>
<path d="M29.7714 49.1958H12.5195C12.606 51.2464 13.4956 52.4447 13.4956 52.4447L14.1443 53.5706C14.1907 53.6366 14.2185 53.6744 14.2185 53.6744L15.6301 56.1527L18.7994 61.6691C18.8921 61.8924 19.0002 62.0969 19.1145 62.2919C19.1577 62.3579 19.1979 62.4302 19.2442 62.4931C19.2566 62.512 19.2689 62.5309 19.2813 62.5498C19.6736 63.1033 20.1122 63.531 20.5509 63.8675C20.937 64.1569 21.2212 64.2921 21.2212 64.2921L29.7714 49.1958Z" fill="#1967D2"/>
<path d="M50.2432 49.1958H67.4951C67.4086 51.2464 66.519 52.4447 66.519 52.4447L65.8703 53.5706C65.8239 53.6366 65.7961 53.6744 65.7961 53.6744L64.3845 56.1527L61.2152 61.6691C61.1225 61.8924 61.0144 62.0969 60.9001 62.2919C60.8569 62.3579 60.8167 62.4302 60.7704 62.4931C60.758 62.512 60.7457 62.5309 60.7333 62.5498C60.341 63.1033 59.9024 63.531 59.4637 63.8675C59.0776 64.1569 58.7934 64.2921 58.7934 64.2921L50.2432 49.1958Z" fill="#EA4335"/>
</g>
<defs>
<filter id="filter0_d_2842_295270" x="-2" y="-1" width="84" height="84" filterUnits="userSpaceOnUse" color-interpolation-filters="sRGB">
<feFlood flood-opacity="0" result="BackgroundImageFix"/>
<feColorMatrix in="SourceAlpha" type="matrix" values="0 0 0 0 0 0 0 0 0 0 0 0 0 0 0 0 0 0 127 0" result="hardAlpha"/>
<feOffset dy="1"/>
<feGaussianBlur stdDeviation="1"/>
<feColorMatrix type="matrix" values="0 0 0 0 0.0627451 0 0 0 0 0.0941176 0 0 0 0 0.156863 0 0 0 0.05 0"/>
<feBlend mode="normal" in2="BackgroundImageFix" result="effect1_dropShadow_2842_295270"/>
<feBlend mode="normal" in="SourceGraphic" in2="effect1_dropShadow_2842_295270" result="shape"/>
</filter>
</defs>
</svg>
