<svg width="184" height="48" viewBox="0 0 184 48" fill="none" xmlns="http://www.w3.org/2000/svg">
<path d="M16.2144 33.4286C24.8931 33.4286 31.9287 26.393 31.9287 17.7143C31.9287 16.7307 31.8383 15.7682 31.6654 14.8347C30.7319 14.6618 29.7694 14.5714 28.7858 14.5714C20.1071 14.5714 13.0715 21.6069 13.0715 30.2857C13.0715 31.2693 13.1619 32.2318 13.3348 33.1653C14.2683 33.3382 15.2308 33.4286 16.2144 33.4286Z" fill="#175CD3"/>
<path fill-rule="evenodd" clip-rule="evenodd" d="M13.3347 33.1653C6.03118 31.8127 0.5 25.4095 0.5 17.7143C0.5 9.03553 7.53553 2 16.2143 2C23.9095 2 30.3128 7.53118 31.6653 14.8347C30.7318 14.6618 29.7693 14.5714 28.7857 14.5714C20.107 14.5714 13.0714 21.607 13.0714 30.2857C13.0714 31.2693 13.1618 32.2318 13.3347 33.1653Z" fill="#1570EF"/>
<path fill-rule="evenodd" clip-rule="evenodd" d="M16.2143 33.4285C24.8931 33.4285 31.9286 26.393 31.9286 17.7142C31.9286 16.7306 31.8382 15.7681 31.6654 14.8346C38.9689 16.1872 44.5 22.5905 44.5 30.2856C44.5 38.9644 37.4645 45.9999 28.7858 45.9999C21.0906 45.9999 14.6873 40.4687 13.3347 33.1652C14.2682 33.3381 15.2307 33.4285 16.2143 33.4285Z" fill="#2E90FA"/>
<path d="M74.7281 28.904C74.1681 30.7147 73.1881 32.068 71.7881 32.964C70.3881 33.8414 68.7548 34.28 66.8881 34.28C65.0588 34.28 63.4721 33.8974 62.1281 33.132C60.8028 32.3667 59.7761 31.2747 59.0481 29.856C58.3388 28.4374 57.9841 26.7387 57.9841 24.76C57.9841 22.7814 58.3481 21.0827 59.0761 19.664C59.8041 18.2454 60.8308 17.1534 62.1561 16.388C63.4815 15.6227 65.0401 15.24 66.8321 15.24C68.7175 15.24 70.3321 15.6414 71.6761 16.444C73.0388 17.228 73.9721 18.4227 74.4761 20.028L70.9761 21.512C70.6588 20.392 70.1735 19.5987 69.5201 19.132C68.8668 18.6467 68.0268 18.404 67.0001 18.404C65.4695 18.404 64.2468 18.9547 63.3321 20.056C62.4361 21.1387 61.9881 22.7067 61.9881 24.76C61.9881 26.7947 62.4175 28.3627 63.2761 29.464C64.1348 30.5654 65.3761 31.116 67.0001 31.116C68.0081 31.116 68.8761 30.8454 69.6041 30.304C70.3508 29.7627 70.8735 28.9414 71.1721 27.84L74.7281 28.904Z" fill="#101828"/>
<path d="M79.5614 17.984C77.9747 17.984 77.1814 17.3027 77.1814 15.94C77.1814 14.5587 77.9747 13.868 79.5614 13.868C81.1481 13.868 81.9414 14.5587 81.9414 15.94C81.9414 17.3027 81.1481 17.984 79.5614 17.984ZM81.4654 20V34H77.6294V20H81.4654Z" fill="#101828"/>
<path d="M85.5318 34V20H88.8637L89.1157 22.744C89.4704 21.792 90.0024 21.0547 90.7117 20.532C91.4397 19.9907 92.3544 19.72 93.4557 19.72C94.1091 19.72 94.6131 19.8227 94.9677 20.028L94.5197 23.248C94.3331 23.192 94.0997 23.1454 93.8197 23.108C93.5584 23.052 93.2131 23.024 92.7837 23.024C92.2051 23.024 91.6544 23.164 91.1317 23.444C90.6277 23.7054 90.2077 24.116 89.8717 24.676C89.5357 25.2174 89.3678 25.908 89.3678 26.748V34H85.5318Z" fill="#101828"/>
<path d="M103.427 19.72C105.293 19.72 106.74 20.1214 107.767 20.924C108.812 21.7267 109.503 22.6974 109.839 23.836L106.255 25.124C105.881 23.4254 104.957 22.576 103.483 22.576C102.419 22.576 101.588 22.9494 100.991 23.696C100.412 24.4427 100.123 25.5534 100.123 27.028C100.123 28.5214 100.421 29.632 101.019 30.36C101.635 31.0694 102.465 31.424 103.511 31.424C105.135 31.424 106.105 30.5934 106.423 28.932L109.895 30.052C109.577 31.3027 108.868 32.32 107.767 33.104C106.684 33.888 105.275 34.28 103.539 34.28C102.083 34.28 100.804 33.9907 99.7028 33.412C98.6201 32.8334 97.7801 32.0027 97.1828 30.92C96.5855 29.8374 96.2868 28.5307 96.2868 27C96.2868 25.4694 96.5855 24.1627 97.1828 23.08C97.7988 21.9974 98.6388 21.1667 99.7028 20.588C100.785 20.0094 102.027 19.72 103.427 19.72Z" fill="#101828"/>
<path d="M119.259 19.72C120.659 19.72 121.901 20.0094 122.983 20.588C124.066 21.1667 124.906 21.9974 125.503 23.08C126.119 24.1627 126.427 25.4694 126.427 27C126.427 28.5307 126.119 29.8374 125.503 30.92C124.906 32.0027 124.066 32.8334 122.983 33.412C121.901 33.9907 120.659 34.28 119.259 34.28C117.841 34.28 116.59 33.9907 115.507 33.412C114.443 32.8334 113.603 32.0027 112.987 30.92C112.39 29.8374 112.091 28.5307 112.091 27C112.091 25.4694 112.39 24.1627 112.987 23.08C113.603 21.9974 114.443 21.1667 115.507 20.588C116.59 20.0094 117.841 19.72 119.259 19.72ZM119.259 22.576C118.214 22.576 117.393 22.9494 116.795 23.696C116.217 24.424 115.927 25.5254 115.927 27C115.927 28.4747 116.217 29.5854 116.795 30.332C117.393 31.06 118.214 31.424 119.259 31.424C120.286 31.424 121.089 31.06 121.667 30.332C122.265 29.5854 122.563 28.4747 122.563 27C122.563 25.5254 122.265 24.424 121.667 23.696C121.089 22.9494 120.286 22.576 119.259 22.576Z" fill="#101828"/>
<path d="M136.021 19.72C137.421 19.72 138.663 20.0094 139.745 20.588C140.828 21.1667 141.668 21.9974 142.265 23.08C142.881 24.1627 143.189 25.4694 143.189 27C143.189 28.5307 142.881 29.8374 142.265 30.92C141.668 32.0027 140.828 32.8334 139.745 33.412C138.663 33.9907 137.421 34.28 136.021 34.28C134.603 34.28 133.352 33.9907 132.269 33.412C131.205 32.8334 130.365 32.0027 129.749 30.92C129.152 29.8374 128.853 28.5307 128.853 27C128.853 25.4694 129.152 24.1627 129.749 23.08C130.365 21.9974 131.205 21.1667 132.269 20.588C133.352 20.0094 134.603 19.72 136.021 19.72ZM136.021 22.576C134.976 22.576 134.155 22.9494 133.557 23.696C132.979 24.424 132.689 25.5254 132.689 27C132.689 28.4747 132.979 29.5854 133.557 30.332C134.155 31.06 134.976 31.424 136.021 31.424C137.048 31.424 137.851 31.06 138.429 30.332C139.027 29.5854 139.325 28.4747 139.325 27C139.325 25.5254 139.027 24.424 138.429 23.696C137.851 22.9494 137.048 22.576 136.021 22.576Z" fill="#101828"/>
<path d="M150.179 13.868V29.688C150.179 30.3414 150.291 30.7987 150.515 31.06C150.739 31.3214 151.112 31.452 151.635 31.452C151.952 31.452 152.214 31.4334 152.419 31.396C152.624 31.3587 152.886 31.284 153.203 31.172L152.867 33.692C152.55 33.8787 152.148 34.0187 151.663 34.112C151.196 34.224 150.73 34.28 150.263 34.28C148.9 34.28 147.902 33.9534 147.267 33.3C146.651 32.628 146.343 31.564 146.343 30.108V13.868H150.179Z" fill="#101828"/>
<path d="M161.836 34.28C159.634 34.28 157.87 33.6454 156.544 32.376C155.219 31.088 154.556 29.296 154.556 27C154.556 25.4694 154.855 24.1627 155.452 23.08C156.05 21.9974 156.88 21.1667 157.944 20.588C159.027 20.0094 160.259 19.72 161.64 19.72C163.059 19.72 164.263 20.0094 165.252 20.588C166.242 21.148 166.998 21.9227 167.52 22.912C168.043 23.8827 168.304 24.9934 168.304 26.244C168.304 26.6174 168.295 26.972 168.276 27.308C168.258 27.644 168.23 27.9427 168.192 28.204H158.308C158.458 29.2867 158.831 30.0987 159.428 30.64C160.044 31.1627 160.838 31.424 161.808 31.424C162.63 31.424 163.292 31.2654 163.796 30.948C164.3 30.6307 164.692 30.192 164.972 29.632L168.024 30.808C167.576 31.9094 166.792 32.768 165.672 33.384C164.552 33.9814 163.274 34.28 161.836 34.28ZM161.612 22.548C159.802 22.548 158.71 23.5467 158.336 25.544H164.636C164.524 24.5734 164.207 23.836 163.684 23.332C163.18 22.8094 162.49 22.548 161.612 22.548Z" fill="#101828"/>
<path d="M177.155 34.28C175.736 34.28 174.439 34.028 173.263 33.524C172.106 33.02 171.163 32.3107 170.435 31.396L172.647 29.156C173.095 29.828 173.692 30.3787 174.439 30.808C175.186 31.2374 176.072 31.452 177.099 31.452C177.827 31.452 178.406 31.3494 178.835 31.144C179.283 30.92 179.507 30.5747 179.507 30.108C179.507 29.8094 179.405 29.5574 179.199 29.352C178.994 29.128 178.583 28.9507 177.967 28.82L175.503 28.316C173.879 27.98 172.722 27.476 172.031 26.804C171.359 26.1134 171.023 25.2267 171.023 24.144C171.023 23.3787 171.247 22.66 171.695 21.988C172.162 21.316 172.852 20.7747 173.767 20.364C174.682 19.9347 175.82 19.72 177.183 19.72C180.02 19.72 182.055 20.588 183.287 22.324L180.991 24.564C180.58 23.9107 180.039 23.416 179.367 23.08C178.714 22.7254 178.023 22.548 177.295 22.548C175.652 22.548 174.831 23.0054 174.831 23.92C174.831 24.2187 174.962 24.48 175.223 24.704C175.484 24.9094 175.96 25.0867 176.651 25.236L179.507 25.824C180.888 26.104 181.878 26.58 182.475 27.252C183.072 27.9054 183.371 28.6987 183.371 29.632C183.371 30.976 182.83 32.0867 181.747 32.964C180.683 33.8414 179.152 34.28 177.155 34.28Z" fill="#101828"/>
</svg>
